Coordinates
version=1
nRows=10
nColumns=40
inDegrees=yes

Units are S.I. units (second, meters, Newtons, ...)
If the header above contains a line with 'inDegrees', this indicates whether rotational values are in degrees (yes) or radians (no).

endheader
time	pelvis_tilt	pelvis_list	pelvis_rotation	pelvis_tx	pelvis_ty	pelvis_tz	hip_flexion_r	hip_adduction_r	hip_rotation_r	knee_angle_r	knee_angle_r_beta	ankle_angle_r	subtalar_angle_r	mtp_angle_r	hip_flexion_l	hip_adduction_l	hip_rotation_l	knee_angle_l	knee_angle_l_beta	ankle_angle_l	subtalar_angle_l	mtp_angle_l	lumbar_extension	lumbar_bending	lumbar_rotation	arm_flex_r	arm_add_r	arm_rot_r	elbow_flex_r	pro_sup_r	wrist_flex_r	wrist_dev_r	arm_flex_l	arm_add_l	arm_rot_l	elbow_flex_l	pro_sup_l	wrist_flex_l	wrist_dev_l
      3.02500000	     16.17060337	      7.65503046	      1.11554373	     -0.37672462	      1.02928552	     -0.74876424	      8.31416415	     -8.08058998	    -12.12645749	     48.33401311	      0.84358767	     11.33615078	      0.00000000	      0.00000000	     44.63812729	      2.91869394	      0.21207087	      7.50917608	      0.13105985	     -7.37036889	      0.00000000	      0.00000000	    -21.49865093	     -2.82379865	      3.51497177	     89.93941868	    -14.66064606	     30.14316658	     33.14788297	     80.16292945	      0.00000000	      0.00000000	     89.93507045	     -7.50498083	     30.53937954	     34.71574180	     82.71060397	      0.00000000	      0.00000000
      3.03000000	     16.13998712	      7.62963386	      1.10285756	     -0.37696219	      1.02851066	     -0.74886091	      8.47191024	     -8.08626366	    -12.09713986	     48.56592824	      0.84763535	     11.42896233	      0.00000000	      0.00000000	     44.71457172	      2.90440366	      0.24877805	      7.57283689	      0.13217094	     -7.33152893	      0.00000000	      0.00000000	    -21.50003952	     -2.79411255	      3.56953885	     89.93965843	    -14.69352300	     30.01214259	     33.19535642	     80.07820757	      0.00000000	      0.00000000	     89.93490578	     -7.45482273	     30.47085798	     34.72948524	     82.63809199	      0.00000000	      0.00000000
      3.03500000	     16.15889276	      7.58169976	      1.08620177	     -0.37719422	      1.02787331	     -0.74887826	      8.54650317	     -8.04277358	    -12.07264018	     48.73131197	      0.85052184	     11.53537967	      0.00000000	      0.00000000	     44.70267334	      2.86890934	      0.30017609	      7.54075885	      0.13161107	     -7.32101359	      0.00000000	      0.00000000	    -21.55789254	     -2.74406033	      3.59387483	     89.93972522	    -14.70554950	     29.98029389	     33.25870165	     80.00368505	      0.00000000	      0.00000000	     89.93514282	     -7.44802846	     30.39528426	     34.75612798	     82.71794116	      0.00000000	      0.00000000
      3.04000000	     16.17544462	      7.61961912	      1.05972163	     -0.37740381	      1.02724932	     -0.74893391	      8.63955251	     -8.10733981	    -12.04480765	     48.93017905	      0.85399273	     11.62628536	      0.00000000	      0.00000000	     44.68702728	      2.90270622	      0.28160031	      7.51650087	      0.13118769	     -7.38718303	      0.00000000	      0.00000000	    -21.60484573	     -2.78562377	      3.60851396	     89.93988225	    -14.75996944	     29.95001924	     33.30014969	     80.26561228	      0.00000000	      0.00000000	     89.93529722	     -7.42442089	     30.36120590	     34.75709557	     82.71561156	      0.00000000	      0.00000000
      3.04500000	     16.13910119	      7.65965960	      1.01341132	     -0.37766655	      1.02650342	     -0.74905659	      8.81041614	     -8.18988003	    -11.99120660	     49.16963720	      0.85817206	     11.73125529	      0.00000000	      0.00000000	     44.73886595	      2.92254207	      0.24317172	      7.50901386	      0.13105702	     -7.39853200	      0.00000000	      0.00000000	    -21.60561028	     -2.82527791	      3.61727873	     89.93991634	    -14.73878250	     29.83046357	     33.34907156	     80.43724453	      0.00000000	      0.00000000	     89.93526465	     -7.44501738	     30.28462616	     34.79972869	     82.63315862	      0.00000000	      0.00000000
      3.05000000	     16.16564456	      7.60834340	      0.99745667	     -0.37797716	      1.02582247	     -0.74910222	      8.88959362	     -8.15761890	    -11.99189689	     49.35774791	      0.86145521	     11.83557903	      0.00000000	      0.00000000	     44.75372611	      2.88570223	      0.26804302	      7.55101921	      0.13179015	     -7.35617555	      0.00000000	      0.00000000	    -21.67573707	     -2.76328611	      3.65293462	     89.94015146	    -14.74103892	     29.79381075	     33.41410182	     80.16062778	      0.00000000	      0.00000000	     89.93545187	     -7.43866921	     30.22877953	     34.85273305	     82.62044014	      0.00000000	      0.00000000
      3.05500000	     16.13350505	      7.58698180	      1.04081323	     -0.37811620	      1.02506840	     -0.74930565	      9.02064721	     -8.18783204	    -12.04304323	     49.56705986	      0.86510840	     11.91467092	      0.00000000	      0.00000000	     44.80745041	      2.91590599	      0.33602435	      7.55640753	      0.13188419	     -7.34566828	      0.00000000	      0.00000000	    -21.66029577	     -2.71942791	      3.63338380	     89.94037733	    -14.78688046	     29.77187255	     33.44973765	     80.23432296	      0.00000000	      0.00000000	     89.93543780	     -7.40568039	     30.20125792	     34.81999614	     82.68554397	      0.00000000	      0.00000000
      3.06000000	     16.13387691	      7.58149976	      1.00422156	     -0.37831917	      1.02439469	     -0.74943520	      9.13095317	     -8.22966301	    -12.03311735	     49.77774921	      0.86878562	     12.00650659	      0.00000000	      0.00000000	     44.82531994	      2.90500000	      0.28908926	      7.55282175	      0.13182161	     -7.37849353	      0.00000000	      0.00000000	    -21.65943819	     -2.68119372	      3.69854438	     89.94043923	    -14.81485883	     29.77581801	     33.45684204	     80.19750430	      0.00000000	      0.00000000	     89.93504952	     -7.37703432	     30.22378727	     34.76068079	     82.65973970	      0.00000000	      0.00000000
      3.06500000	     16.13223012	      7.51594200	      1.00387965	     -0.37844001	      1.02374598	     -0.74956647	      9.22357113	     -8.19435957	    -12.04918118	     49.96815711	      0.87210886	     12.11987344	      0.00000000	      0.00000000	     44.84642080	      2.86756278	      0.39876388	      7.56614733	      0.13205418	     -7.36265015	      0.00000000	      0.00000000	    -21.70878308	     -2.61987616	      3.69019420	     89.94038546	    -14.81118186	     29.70762308	     33.54260233	     80.23292906	      0.00000000	      0.00000000	     89.93545737	     -7.37878807	     30.10064913	     34.82490840	     82.67435149	      0.00000000	      0.00000000
      3.07000000	     16.14785626	      7.59283359	      1.00613879	     -0.37868157	      1.02307552	     -0.74972872	      9.32311441	     -8.34388023	    -12.10730453	     50.21651732	      0.87644357	     12.25441149	      0.00000000	      0.00000000	     44.83350414	      2.94859830	      0.34503104	      7.53823960	      0.13156710	     -7.38093949	      0.00000000	      0.00000000	    -21.75380359	     -2.67946024	      3.68017110	     89.94046338	    -14.83256034	     29.97145348	     33.58478326	     77.99037569	      0.00000000	      0.00000000	     89.93569707	     -7.32322466	     30.32323215	     34.80743554	     80.47663771	      0.00000000	      0.00000000
